<?xml version="1.0" standalone="no"?>
<!DOCTYPE svg PUBLIC "-//W3C//DTD SVG 20010904//EN"
 "http://www.w3.org/TR/2001/REC-SVG-20010904/DTD/svg10.dtd">
<svg version="1.0" xmlns="http://www.w3.org/2000/svg"
 width="245.000000pt" height="245.000000pt" viewBox="0 0 245.000000 245.000000"
 preserveAspectRatio="xMidYMid meet">
<metadata>
Created by potrace 1.11, written by Peter Selinger 2001-2013
</metadata>
<g transform="translate(0.000000,245.000000) scale(0.100000,-0.100000)"
fill="#000000" stroke="none">
<path d="M468 2110 c-1 -5 -18 -10 -35 -12 -18 -1 -33 -6 -33 -10 0 -4 -7 -5
-15 -2 -8 4 -15 2 -15 -4 0 -9 -47 -27 -62 -24 -5 1 -8 -5 -8 -14 0 -8 -4 -13
-9 -9 -6 3 -15 -3 -20 -14 -6 -11 -20 -23 -31 -26 -11 -4 -18 -10 -15 -15 3
-4 -2 -11 -11 -14 -9 -4 -14 -9 -11 -12 3 -4 -3 -15 -13 -26 -10 -11 -16 -27
-13 -36 4 -10 2 -13 -5 -8 -8 5 -12 0 -12 -14 0 -12 -3 -19 -7 -17 -13 8 -25
-277 -14 -298 3 -5 6 -23 6 -40 0 -16 4 -36 9 -44 7 -10 6 -12 -3 -6 -10 5
-11 3 -4 -11 5 -11 9 -56 9 -101 -1 -46 2 -83 6 -83 4 0 3 -11 -2 -24 -5 -13
-6 -27 -3 -30 10 -10 9 -196 -1 -196 -4 0 -4 -6 2 -12 5 -7 9 -28 7 -45 -1
-18 0 -31 4 -28 4 2 6 -14 5 -36 -1 -21 2 -39 6 -39 4 0 8 -12 7 -27 -1 -66 3
-84 15 -77 9 5 9 2 -1 -9 -11 -14 -11 -17 0 -17 11 0 11 -2 -1 -10 -11 -7 -11
-10 -2 -10 10 0 10 -5 2 -20 -8 -15 -8 -20 1 -20 8 0 8 -4 -1 -15 -6 -8 -9
-18 -6 -24 4 -5 0 -16 -8 -24 -8 -8 -12 -17 -9 -21 10 -10 -71 -83 -110 -100
-20 -8 -38 -12 -41 -9 -2 3 -2 -4 1 -16 3 -12 13 -22 22 -22 54 -5 76 -7 79
-9 7 -7 29 -5 40 3 8 6 12 5 12 -2 0 -7 4 -10 8 -7 18 11 62 14 67 5 4 -5 11
-9 16 -9 6 0 7 6 3 13 -5 7 -1 7 10 -2 15 -13 19 -13 27 0 5 8 9 9 9 4 0 -6
12 -12 28 -13 21 -1 23 0 12 8 -21 13 -3 13 22 -1 15 -8 19 -8 14 0 -4 7 1 11
13 11 11 0 26 8 33 18 7 10 18 21 25 25 12 7 52 -9 64 -26 3 -5 8 -8 10 -7 2
1 18 -4 34 -11 17 -7 33 -13 38 -14 4 -2 10 -4 15 -5 4 -1 10 -2 15 -1 4 0 7
-4 7 -9 0 -6 6 -10 13 -9 17 3 70 -12 86 -25 12 -9 13 -8 6 3 -6 11 -5 12 6 5
8 -4 19 -9 24 -10 9 -2 78 -14 100 -18 6 -1 16 -6 24 -10 10 -6 12 -5 7 2 -4
7 -2 12 3 12 6 0 11 -4 11 -10 0 -5 5 -10 11 -10 5 0 8 4 5 8 -3 5 1 9 9 9 8
0 12 -4 9 -8 -3 -5 76 -8 175 -7 129 1 178 4 174 12 -4 6 1 5 10 -3 14 -11 17
-11 17 0 0 12 2 12 9 0 6 -10 10 -10 16 -1 6 9 10 9 16 -1 5 -8 9 -9 9 -3 0 6
15 11 33 12 17 1 43 4 57 8 14 3 41 6 60 8 19 1 41 6 49 11 10 5 16 4 19 -3 3
-9 7 -9 16 1 8 7 36 12 69 12 37 -1 54 2 49 9 -3 6 2 5 11 -3 9 -7 17 -9 17
-5 0 5 24 9 53 8 28 -1 58 3 65 9 8 6 12 6 12 -3 0 -10 3 -10 15 0 12 10 15
10 15 0 0 -10 4 -10 16 1 13 10 17 10 24 0 4 -8 9 -9 11 -3 2 6 18 11 34 13
17 2 36 8 44 14 12 8 13 7 6 -5 -8 -13 -7 -13 8 -1 14 11 17 11 17 0 0 -10 3
-10 8 -3 4 6 30 15 57 19 28 5 52 9 55 9 3 1 11 5 19 10 11 7 12 6 6 -5 -5 -8
0 -7 12 3 11 10 23 18 27 18 10 0 36 27 31 32 -4 4 41 9 98 11 9 1 17 5 17 10
0 4 4 6 9 3 5 -4 11 -1 13 6 5 15 -15 38 -32 38 -6 0 -8 6 -4 12 4 7 4 10 -1
6 -11 -10 -47 11 -40 23 4 5 3 9 -2 9 -12 0 -78 61 -76 70 3 9 -45 24 -64 21
-7 -1 -13 2 -13 8 0 5 -16 10 -35 11 -64 2 -74 4 -69 12 3 4 1 8 -5 8 -5 0
-11 -6 -14 -12 -3 -10 -7 -10 -19 0 -12 9 -18 10 -23 2 -5 -8 -11 -8 -19 -1
-9 7 -17 7 -26 -2 -10 -10 -11 -9 -5 3 8 13 6 13 -7 2 -13 -10 -17 -10 -22 0
-5 10 -7 10 -12 1 -3 -7 -10 -13 -15 -13 -6 0 -7 6 -3 13 5 8 2 8 -9 -2 -11
-9 -17 -10 -17 -2 0 6 -4 11 -10 11 -13 0 -138 129 -132 135 3 3 1 5 -5 5 -6
0 -34 22 -62 50 -28 27 -54 50 -57 50 -3 0 -23 18 -45 40 -21 21 -39 37 -39
34 0 -3 -11 5 -24 18 -34 33 -75 68 -81 68 -12 0 -76 74 -91 106 -9 19 -21 34
-26 34 -5 0 -7 4 -4 8 9 15 -125 140 -145 135 -5 -2 -9 2 -9 7 0 6 -9 10 -21
10 -11 0 -17 5 -14 10 3 6 -1 10 -9 10 -9 0 -25 9 -36 20 -11 11 -20 17 -20
14 0 -4 -6 -1 -13 5 -8 6 -18 7 -22 3 -5 -4 -5 -2 -2 4 4 7 -1 18 -10 25 -14
12 -16 12 -9 -1 5 -8 -6 1 -23 20 -43 47 -67 99 -73 157 -1 12 -6 19 -10 17
-4 -3 -8 3 -9 13 -1 33 -7 53 -30 101 -23 46 -25 52 -28 73 0 5 -5 7 -11 4 -5
-3 -10 1 -10 9 0 9 -3 16 -7 16 -5 0 -17 14 -28 30 -11 16 -26 30 -32 30 -7 0
-13 4 -13 9 0 5 -8 11 -17 15 -18 5 -54 26 -63 36 -3 3 -12 5 -20 5 -8 0 -17
3 -20 7 -3 4 -21 9 -40 10 -19 2 -38 8 -42 13 -5 6 -8 4 -8 -5 0 -13 -1 -13
-10 0 -9 13 -11 13 -21 0 -8 -11 -12 -12 -16 -2 -6 14 -20 16 -25 2z"/>
</g>
</svg>
